inDegrees=yes
name=ik_lifting_orientations
DataType=double
version=3
OpenSimVersion=4.5-2024-01-10-34fd6af
endheader
time	pelvis_tilt	pelvis_list	pelvis_rotation	pelvis_tx	pelvis_ty	pelvis_tz	hip_flexion_r	hip_adduction_r	hip_rotation_r	knee_angle_r	knee_angle_r_beta	ankle_angle_r	subtalar_angle_r	mtp_angle_r	hip_flexion_l	hip_adduction_l	hip_rotation_l	knee_angle_l	knee_angle_l_beta	ankle_angle_l	subtalar_angle_l	mtp_angle_l	lumbar_extension	lumbar_bending	lumbar_rotation	arm_flex_r	arm_add_r	arm_rot_r	elbow_flex_r	pro_sup_r	wrist_flex_r	wrist_dev_r	arm_flex_l	arm_add_l	arm_rot_l	elbow_flex_l	pro_sup_l	wrist_flex_l	wrist_dev_l
0.49	0.002089438727717298	0.007762281098807057	2.441372860757089	0	0.9399999999999999	0	43.87551870602941	-10.03398475502792	0	59.95675184513585	1.046442728498806	-5.006058148539384	0	0	43.87551870602941	-10.03398475502792	0	59.95675184513585	1.046442728498806	-5.006058148539384	0	0	0.01027282138352485	-0.01287031713417552	-0.01565532712026216	-0.2697809758491694	-0.4380953997943609	-0.3929301746129772	0.3490199855534797	45.01873719660983	0	0	0	-12.37201778674731	0	75.1007923654732	45.01873719660983	0	0
0.5	-1.316404299573163e-05	0.001551011545182563	2.435632331046652	0	0.9399999999999999	0	43.87567294888172	-10.03396840385065	0	59.95675649880102	1.046442809720585	-5.006054343566752	0	0	43.87567294888172	-10.03396840385065	0	59.95675649880102	1.046442809720585	-5.006054343566752	0	0	0.01093000085725616	-0.001148915196024606	-0.003481374557800817	-0.2654372612210359	-0.4442722601021977	-0.4001198506206357	0.3477112629870209	45.01873007044856	0	0	0	-12.37220192943666	0	75.10077856724129	45.01873007044856	0	0
0.51	0.0008427491718015847	0.000356879365905192	2.434467243449571	0	0.9399999999999999	0	43.87581932910889	-10.03395288858333	0	59.95676091460287	1.046442886790867	-5.006050733534261	0	0	43.87581932910889	-10.03395288858333	0	59.95676091460287	1.046442886790867	-5.006050733534261	0	0	0.01050801432200208	0.001306075021205326	-0.0006391241087849748	-0.2659552093150183	-0.4461404409401823	-0.4018125073407081	0.3479116864685596	45.01872330811292	0	0	0	-12.37237667524531	0	75.10076547238266	45.01872330811292	0	0
0.54	-0.004163098591160137	0.02142687184618831	2.424758744608889	0	0.9399999999999999	0	43.87642571749213	-10.03388888657603	0	59.95677923976388	1.046443206625262	-5.006035861463535	0	0	43.87642571749213	-10.03388888657603	0	59.95677923976388	1.046443206625262	-5.006035861463535	0	0	0.02489991401537935	-0.03401417420296102	0.01835627120095458	0.1052480184264037	-0.9742142716392513	-0.1359595179502286	1.303731139079023	45.0186953846353	0	0	0	-12.37310162654962	0	75.10071122612329	45.0186953846353	0	0
0.5600000000000001	0.01134919238415322	-0.01010936970237281	2.439034899913338	0	0.9399999999999999	0	43.89989622883439	-10.03166982260586	0	59.95749473030576	1.046455694290985	-5.005542262665736	0	0	43.89989622883439	-10.03166982260586	0	59.95749473030576	1.046455694290985	-5.005542262665736	0	0	-0.007648082525870597	-0.006621891662039988	0.002392603968592716	0.1109945719739569	-0.960117726046273	-0.138499865095534	1.33137223967135	45.01769659143176	0	0	0	-12.40179453506827	0	75.09861153821623	45.01769659143176	0	0
0.57	-0.01436704908854142	-0.004369066718234562	2.433101716951129	0	0.9399999999999999	0	43.9564312119297	-10.02669569076752	0	59.95922941987202	1.046485970335416	-5.00446574309375	0	0	43.9564312119297	-10.02669569076752	0	59.95922941987202	1.046485970335416	-5.00446574309375	0	0	0.02505033261950465	0.005416512226201234	0.001820066903888242	-0.03488075101843576	-1.019021039225897	-0.1371203565053628	1.616513219442684	45.01541276394969	0	0	0	-12.47197879771521	0	75.09355378790265	45.01541276394969	0	0
0.58	-0.01020119581327034	-0.005224563293224727	2.43134648142846	0	0.9399999999999999	0	43.96248808613941	-10.02633407454161	0	59.95946818218676	1.046490137523938	-5.004393933715617	0	0	43.96248808613941	-10.02633407454161	0	59.95946818218676	1.046490137523938	-5.004393933715617	0	0	-0.01495953150046566	-0.01595367257264467	-0.01506986410273145	0.2853585978789923	-1.141236490387153	-0.2475390262141456	2.708122692612524	45.01523367928944	0	0	0	-12.48099089681595	0	75.09301186681282	45.01523367928944	0	0
0.59	0.001055699462904245	0.001036863085640974	2.435363551133835	0	0.9399999999999999	0	43.97481940759019	-10.025320909848	0	59.95984797530211	1.046496766164277	-5.004179362844776	0	0	43.97481940759019	-10.025320909848	0	59.95984797530211	1.046496766164277	-5.004179362844776	0	0	-0.003511072965634708	0.0006164203621625224	-7.221705890811802e-05	0.2304757186548217	-1.178493572584607	-0.2769984880426969	2.752616441203277	45.0147605645168	0	0	0	-12.49659713478306	0	75.0919086556343	45.0147605645168	0	0
0.61	0.008501478691442256	0.0001739843697822411	2.432002913988415	0	0.9399999999999999	0	43.98144496177599	-10.02493499570404	0	59.96010843706047	1.046501312079536	-5.004103532590274	0	0	43.98144496177599	-10.02493499570404	0	59.96010843706047	1.046501312079536	-5.004103532590274	0	0	-0.01267198699045648	0.001380793686079286	0.002424570430898433	0.1957756077987498	-0.9662797816500684	0.04693445648795221	3.787950892777892	45.01456804431312	0	0	0	-12.50649723154348	0	75.09131585185773	45.01456804431312	0	0
0.63	0.006159193621567746	0.002026774578978142	2.434003551423037	0	0.9399999999999999	0	43.98943948555624	-10.02447350272612	0	59.96042264557044	1.046506796052573	-5.004013126886294	0	0	43.98943948555624	-10.02447350272612	0	59.96042264557044	1.046506796052573	-5.004013126886294	0	0	-0.011306199111257	-0.0009331374772575145	-0.001567187643693339	0.2567843455619403	-1.164041569576118	-0.1056081424006452	5.297401880232099	45.01433729408973	0	0	0	-12.51847237679897	0	75.09060056209167	45.01433729408973	0	0
0.65	0.002420552444686987	0.002336143143984135	2.438536607134957	0	0.9399999999999999	0	43.98963120790783	-10.02445723710153	0	59.96042854445497	1.04650689900753	-5.004009645841754	0	0	43.98963120790783	-10.02445723710153	0	59.96042854445497	1.04650689900753	-5.004009645841754	0	0	-0.02750601169888726	-0.009822224233277161	-0.005477943548845243	0.3209626853378642	-1.204549063498078	-0.176793713937524	6.074031145345884	45.01432976017244	0	0	0	-12.51871306087136	0	75.0905834099769	45.01432976017244	0	0
0.66	0.007965229756153939	0.002404531587321539	2.434288683891674	0	0.9399999999999999	0	43.99781717990938	-10.02399036481753	0	59.96075039040525	1.046512516279047	-5.003918555726083	0	0	43.99781717990938	-10.02399036481753	0	59.96075039040525	1.046512516279047	-5.003918555726083	0	0	-0.01348793343763949	-0.001109116229125743	-0.001890980640423431	0.323389779178859	-1.411104886983438	-0.3442554567343191	7.64918979736937	45.01409560794914	0	0	0	-12.53101688065357	0	75.08985098934603	45.01409560794914	0	0
0.67	-0.01200357911938093	-0.01119728201549216	2.437537502492608	0	0.9399999999999999	0	44.00003609944385	-10.02382327819588	0	59.96081960788876	1.046513724352034	-5.003884371425261	0	0	44.00003609944385	-10.02382327819588	0	59.96081960788876	1.046513724352034	-5.003884371425261	0	0	0.01650945489465248	0.01043756272838529	-0.001884544103346295	0.276880872399108	-1.415981323055344	-0.3519741569614885	7.725783408373467	45.01401565145085	0	0	0	-12.53388048297522	0	75.08965247189022	45.01401565145085	0	0
0.68	0.009196878946964875	0.002772644775501323	2.435422252566708	0	0.9399999999999999	0	44.00031727693312	-10.0237998024743	0	59.9608282614325	1.046513875384864	-5.003879375374757	0	0	44.00031727693312	-10.0237998024743	0	59.9608282614325	1.046513875384864	-5.003879375374757	0	0	-0.01751311920995397	-0.004072785858937411	-0.002483226193727083	0.3396641046129389	-1.461330417223956	-0.4255546794710909	8.493323046983223	45.01400473256661	0	0	0	-12.53423493562842	0	75.08962731670547	45.01400473256661	0	0
0.7	0.004967045797261865	-0.0007957401373606051	2.43531497643507	0	0.9399999999999999	0	44.00727724253899	-10.02340614717792	0	59.96110122329416	1.046518639468083	-5.003802811006339	0	0	44.00727724253899	-10.02340614717792	0	59.96110122329416	1.046518639468083	-5.003802811006339	0	0	-0.005785892494678232	0.0003257152435982832	-0.001385361261757215	0.4729510920008864	-2.077490385530528	-0.2185834682756178	9.963759865970619	45.01380685033624	0	0	0	-12.54471485136325	0	75.0890045894588	45.01380685033624	0	0
0.71	0.01184324564663484	0.00522313723246799	2.43615887903876	0	0.9399999999999999	0	44.0075362057902	-10.02338476160205	0	59.96110919762454	1.046518778646403	-5.003798276373718	0	0	44.0075362057902	-10.02338476160205	0	59.96110919762454	1.046518778646403	-5.003798276373718	0	0	-0.02152369925355719	-0.005978268098179558	-0.00371112547927616	0.5141179210977489	-2.211629973019651	-0.3066639738515147	10.64030770293934	45.01379687623774	0	0	0	-12.5450423462478	0	75.0889814215658	45.01379687623774	0	0
0.74	0.006282765740594136	0.0007109529140184915	2.43490321336829	0	0.9399999999999999	0	44.01494811027072	-10.02295886004261	0	59.9613962133399	1.046523788015641	-5.003715143426974	0	0	44.01494811027072	-10.02295886004261	0	59.9613962133399	1.046523788015641	-5.003715143426974	0	0	-0.005031100767461308	0.0004012887386862019	-0.0004377217813512935	0.5903430180716261	-2.579858188830057	-0.6748604732493698	13.69732626896724	45.01358346469864	0	0	0	-12.5561287546947	0	75.08831826074562	45.01358346469864	0	0
